<?xml version="1.0" encoding="utf-8"?>
<!-- Generator: Adobe Illustrator 27.6.1, SVG Export Plug-In . SVG Version: 6.00 Build 0)  -->
<svg version="1.1" id="Layer_1" xmlns="http://www.w3.org/2000/svg" xmlns:xlink="http://www.w3.org/1999/xlink" x="0px" y="0px"
	 viewBox="0 0 711.76 238.3" style="enable-background:new 0 0 711.76 238.3;" xml:space="preserve">
<style type="text/css">
	.st0{fill:#85807D;}
	.st1{fill:#D5AEA0;}
</style>
<g>
	<path class="st0" d="M132.75,66.39c0-36.6-30.47-66.37-67.93-66.37C27.87,0.02,0,28.56,0,66.39c0,37.84,27.87,66.38,64.82,66.38
		C102.28,132.77,132.75,102.99,132.75,66.39z M64.82,125.52C32,125.52,7.25,100.1,7.25,66.39C7.25,32.69,32,7.27,64.82,7.27
		c33.46,0,60.68,26.52,60.68,59.12S98.28,125.52,64.82,125.52z"/>
	<path class="st1" d="M297.88,2.2c-0.55-1.3-1.92-2.2-3.45-2.2h0c-1.37,0.04-2.69,0.95-3.22,2.2l-30.14,70.34L230.93,2.2
		c-0.55-1.3-1.92-2.2-3.33-2.2l-0.12,0c-1.36,0.04-2.69,0.95-3.21,2.2l-53.74,125.41c-0.22,0.45-0.35,1.05-0.35,1.56
		c0,2,1.63,3.62,3.62,3.62c1.46,0,2.88-0.98,3.35-2.24L227.6,12.83l29.53,68.9l-19.68,45.94c-0.19,0.43-0.31,0.98-0.31,1.45
		c0,2,1.63,3.62,3.63,3.62c1.41,0,2.78-0.9,3.34-2.2l16.98-39.62l16.94,39.54c0.52,1.34,1.94,2.32,3.38,2.32
		c2,0,3.63-1.63,3.63-3.62c0-0.5-0.13-1.09-0.31-1.47l-19.7-45.96l29.54-68.91L345,130.55c0.55,1.29,1.92,2.2,3.34,2.2
		c2,0,3.63-1.63,3.63-3.62c0-0.45-0.11-0.99-0.29-1.42L297.88,2.2z"/>
	<path class="st0" d="M489.86,132.78c2,0,3.62-1.63,3.62-3.62V3.64c0-2-1.63-3.63-3.62-3.63h-0.06c-1.97,0.03-3.57,1.66-3.57,3.64
		v114.19L403.17,1.55c-0.65-0.91-1.84-1.52-2.95-1.52c-2,0-3.63,1.63-3.63,3.63v125.5c0,2,1.63,3.62,3.63,3.62s3.63-1.63,3.63-3.63
		V14.97l83.07,116.3C487.56,132.17,488.75,132.78,489.86,132.78z"/>
	<path class="st0" d="M548.63,0.01c-1.97,0.03-3.57,1.66-3.57,3.63v125.51c0,1.97,1.6,3.59,3.63,3.62c2,0,3.63-1.63,3.63-3.64V3.64
		C552.31,1.64,550.69,0.01,548.63,0.01z"/>
	<path class="st0" d="M711.76,129.08c0-0.04-0.01-0.07-0.01-0.11c-0.01-0.14-0.03-0.28-0.05-0.42c-0.02-0.13-0.05-0.26-0.09-0.39
		c-0.04-0.13-0.07-0.25-0.11-0.35c-0.02-0.06-0.04-0.11-0.07-0.17L657.66,2.18C657.1,0.9,655.73,0,654.33,0l-0.12,0
		c-1.36,0.04-2.68,0.95-3.21,2.19l-53.75,125.42c-0.01,0.02-0.01,0.04-0.02,0.05c-0.09,0.2-0.16,0.42-0.21,0.64
		c-0.01,0.02-0.02,0.04-0.02,0.07c-0.05,0.25-0.09,0.5-0.09,0.77c0,0,0,0.01,0,0.01c0,0,0,0.01,0,0.01c0,2,1.63,3.63,3.62,3.63
		c0.09,0,0.18-0.01,0.27-0.02h107.08c0.09,0.01,0.18,0.02,0.27,0.02c2,0,3.62-1.63,3.62-3.63c0-0.02,0-0.03,0-0.05
		C711.76,129.11,711.76,129.09,711.76,129.08z M606.03,125.52l48.3-112.69l48.3,112.69H606.03z"/>
	<path class="st0" d="M83.71,197.1c-1.89-0.94-4.04-1.42-6.44-1.42c-4.26,0-7.71,1.54-10.35,4.62c-2.63,3.08-3.95,7.03-3.95,11.85
		v0.42c0,4.81,1.32,8.76,3.96,11.84c2.64,3.08,6.04,4.62,10.2,4.62c2.4,0,4.57-0.47,6.52-1.4c1.93-0.94,3.41-2.1,4.42-3.5v-5.7H86
		l-0.38,4.92c-0.85,1.01-2.01,1.83-3.51,2.47c-1.49,0.64-3.15,0.96-4.97,0.96c-3.44,0-6.22-1.32-8.34-3.97
		c-2.11-2.65-3.17-6.06-3.17-10.23v-0.47c0-4.17,1.07-7.58,3.21-10.21c2.14-2.64,5.02-3.95,8.64-3.95c1.81,0,3.41,0.32,4.79,0.95
		c1.38,0.63,2.5,1.46,3.36,2.48l0.38,4.92h2.07v-5.7C87.06,199.21,85.61,198.04,83.71,197.1z"/>
	<path class="st0" d="M107.7,204.03c-2.81,0-5.2,1.14-7.18,3.41c-1.99,2.27-2.97,5.13-2.97,8.57v1.22c0,3.43,0.99,6.25,2.98,8.47
		c1.99,2.22,4.5,3.33,7.53,3.33c1.91,0,3.56-0.28,4.94-0.83c1.38-0.56,2.53-1.31,3.43-2.26l-1.14-1.83
		c-0.83,0.86-1.83,1.52-3.01,1.98c-1.17,0.46-2.58,0.69-4.23,0.69c-2.35,0-4.24-0.92-5.69-2.75c-1.44-1.83-2.17-4.1-2.17-6.8v-0.65
		h17.01v-2.27c0-3.12-0.85-5.61-2.54-7.48C112.98,204.97,110.65,204.03,107.7,204.03z M114.56,214.34h-14.12l-0.04-0.11
		c0.22-2.27,1.01-4.16,2.35-5.66c1.34-1.51,2.99-2.26,4.95-2.26c2.11,0,3.78,0.71,5.01,2.12c1.23,1.41,1.85,3.16,1.85,5.25V214.34z"
		/>
	<path class="st0" d="M148.09,213.9c0-3.38-0.68-5.87-2.05-7.47c-1.37-1.6-3.35-2.4-5.97-2.4c-1.79,0-3.35,0.41-4.66,1.22
		c-1.32,0.81-2.36,1.96-3.13,3.44l-0.24-4.21h-5.99v1.98l3.63,0.29v19.57l-3.63,0.29v1.96h9.93v-1.96l-3.63-0.29v-14.56
		c0.52-1.63,1.37-2.94,2.55-3.93c1.18-0.99,2.71-1.48,4.58-1.48c1.9,0,3.37,0.57,4.4,1.71c1.03,1.14,1.55,3.1,1.55,5.86v12.4
		l-3.63,0.29v1.96h9.93v-1.96l-3.63-0.29V213.9z"/>
	<path class="st0" d="M170.99,226.65c-0.41,0.04-0.83,0.05-1.26,0.05c-0.95,0-1.71-0.33-2.28-0.99c-0.57-0.66-0.86-1.78-0.86-3.35
		v-15.7h5.3v-2.18h-5.3v-6.17h-2.69v6.17h-4.14v2.18h4.14v15.7c0,2.32,0.47,4.01,1.41,5.08c0.94,1.07,2.26,1.6,3.95,1.6
		c0.64,0,1.28-0.05,1.91-0.16c0.64-0.1,1.18-0.25,1.63-0.45l-0.4-1.98C171.87,226.55,171.39,226.61,170.99,226.65z"/>
	<path class="st0" d="M194.44,204.03c-1.62,0-3.01,0.42-4.2,1.26c-1.18,0.84-2.11,2-2.79,3.48v-0.29l-0.33-4.01h-2.32h-3.63v1.98
		l3.63,0.29v19.57l-3.63,0.29v1.96h9.91v-1.96l-3.63-0.29v-14.38c0.46-1.65,1.23-2.94,2.3-3.88c1.08-0.94,2.45-1.42,4.13-1.42
		l1.98,0.13l0.36-2.49c-0.21-0.06-0.47-0.12-0.79-0.16C195.11,204.06,194.78,204.03,194.44,204.03z"/>
	<path class="st0" d="M214.43,204.03c-3.21,0-5.78,1.14-7.73,3.41c-1.95,2.27-2.92,5.18-2.92,8.73v0.73c0,3.56,0.97,6.48,2.92,8.74
		c1.95,2.26,4.53,3.39,7.77,3.39c3.21,0,5.78-1.13,7.72-3.39c1.93-2.27,2.9-5.18,2.9-8.74v-0.73c0-3.54-0.97-6.46-2.92-8.73
		C220.24,205.17,217.65,204.03,214.43,204.03z M222.43,216.9c0,2.79-0.7,5.14-2.12,7.04c-1.41,1.9-3.35,2.85-5.83,2.85
		c-2.53,0-4.49-0.95-5.9-2.85c-1.41-1.9-2.12-4.24-2.12-7.04v-0.73c0-2.74,0.7-5.08,2.12-6.99c1.41-1.92,3.36-2.87,5.86-2.87
		c2.49,0,4.45,0.96,5.87,2.87c1.42,1.91,2.13,4.25,2.13,6.99V216.9z"/>
	<polygon class="st0" points="268.24,224.7 268.11,224.7 256.2,196.15 252.7,196.15 249.07,196.15 249.07,198.13 252.7,198.42 
		252.7,226.32 249.07,226.61 249.07,228.57 258.98,228.57 258.98,226.61 255.35,226.32 255.35,214.25 255.11,200.18 255.24,200.16 
		267.26,228.57 269.11,228.57 281.16,200.03 281.29,200.07 281.07,214.25 281.07,226.32 277.44,226.61 277.44,228.57 287.35,228.57 
		287.35,226.61 283.72,226.32 283.72,198.42 287.35,198.13 287.35,196.15 280.2,196.15 	"/>
	<polygon class="st0" points="311.77,195.42 311.7,195.28 308.43,195.28 303.84,201.21 306.23,201.21 	"/>
	<path class="st0" d="M305.91,204.03c-2.81,0-5.2,1.14-7.18,3.41c-1.99,2.27-2.97,5.13-2.97,8.57v1.22c0,3.43,0.99,6.25,2.98,8.47
		c1.99,2.22,4.5,3.33,7.53,3.33c1.91,0,3.56-0.28,4.94-0.83c1.38-0.56,2.53-1.31,3.43-2.26l-1.14-1.83
		c-0.83,0.86-1.83,1.52-3.01,1.98c-1.17,0.46-2.58,0.69-4.23,0.69c-2.35,0-4.24-0.92-5.69-2.75c-1.44-1.83-2.17-4.1-2.17-6.8v-0.65
		h17.01v-2.27c0-3.12-0.85-5.61-2.54-7.48C311.19,204.97,308.87,204.03,305.91,204.03z M312.77,214.34h-14.12l-0.04-0.11
		c0.22-2.27,1.01-4.16,2.35-5.66c1.34-1.51,2.99-2.26,4.95-2.26c2.11,0,3.78,0.71,5.01,2.12c1.23,1.41,1.85,3.16,1.85,5.25V214.34z"
		/>
	<path class="st0" d="M344.1,193.84h-2.67h-3.63v1.98l3.63,0.29v12c-0.81-1.3-1.84-2.31-3.07-3.02c-1.23-0.71-2.69-1.06-4.36-1.06
		c-2.91,0-5.17,1.15-6.8,3.46c-1.62,2.31-2.44,5.38-2.44,9.23v0.47c0,3.59,0.82,6.47,2.44,8.62c1.63,2.16,3.88,3.23,6.76,3.23
		c1.71,0,3.19-0.34,4.45-1.02c1.26-0.68,2.29-1.65,3.1-2.92l0.22,3.47h6.01v-1.96l-3.63-0.29V193.84z M341.43,222.38
		c-0.64,1.35-1.53,2.41-2.68,3.18c-1.15,0.77-2.58,1.16-4.29,1.16c-2.35,0-4.1-0.86-5.27-2.58c-1.16-1.72-1.75-4.03-1.75-6.95v-0.47
		c0-3.07,0.59-5.57,1.77-7.49c1.18-1.92,2.94-2.89,5.29-2.89c1.78,0,3.23,0.43,4.35,1.29c1.12,0.86,1.98,1.98,2.57,3.34V222.38z"/>
	<rect x="359.84" y="193.84" class="st0" width="2.65" height="3.74"/>
	<polygon class="st0" points="362.49,204.48 356.21,204.48 356.21,206.46 359.84,206.75 359.84,226.32 356.21,226.61 356.21,228.57 
		366.12,228.57 366.12,226.61 362.49,226.32 	"/>
	<path class="st0" d="M392.14,221.07c0,1.8-0.68,3.2-2.03,4.21c-1.35,1.01-2.91,1.51-4.68,1.51c-2.61,0-4.53-0.92-5.77-2.76
		c-1.23-1.84-1.85-4.19-1.85-7.04v-0.94c0-2.81,0.62-5.13,1.86-6.98c1.24-1.85,3.15-2.77,5.74-2.77c1.35,0,2.56,0.24,3.62,0.7
		c1.06,0.47,1.95,1.1,2.66,1.9l0.42,4.28h2.27l-0.11-5.26c-0.97-1.2-2.22-2.15-3.76-2.85c-1.55-0.69-3.24-1.05-5.1-1.05
		c-3.25,0-5.78,1.13-7.57,3.38c-1.79,2.26-2.69,5.14-2.69,8.64v0.94c0,3.54,0.9,6.43,2.69,8.68s4.33,3.37,7.59,3.37
		c2.45,0,4.6-0.75,6.44-2.25c1.85-1.5,2.74-3.36,2.66-5.59l-0.04-0.13H392.14z"/>
	<path class="st0" d="M414.72,204.03c-3.21,0-5.78,1.14-7.73,3.41c-1.95,2.27-2.92,5.18-2.92,8.73v0.73c0,3.56,0.97,6.48,2.92,8.74
		c1.95,2.26,4.53,3.39,7.77,3.39c3.21,0,5.78-1.13,7.72-3.39c1.93-2.27,2.9-5.18,2.9-8.74v-0.73c0-3.54-0.97-6.46-2.92-8.73
		C420.52,205.17,417.94,204.03,414.72,204.03z M422.71,216.9c0,2.79-0.7,5.14-2.12,7.04c-1.41,1.9-3.35,2.85-5.83,2.85
		c-2.53,0-4.49-0.95-5.9-2.85c-1.41-1.9-2.12-4.24-2.12-7.04v-0.73c0-2.74,0.7-5.08,2.12-6.99c1.41-1.92,3.36-2.87,5.86-2.87
		c2.49,0,4.45,0.96,5.87,2.87c1.42,1.91,2.13,4.25,2.13,6.99V216.9z"/>
	<polygon class="st0" points="449.8,198.13 453.43,198.42 453.43,226.32 449.8,226.61 449.8,228.57 459.73,228.57 459.73,226.61 
		456.1,226.32 456.1,198.42 459.73,198.13 459.73,196.15 449.8,196.15 	"/>
	<path class="st0" d="M490.01,213.9c0-3.38-0.68-5.87-2.05-7.47c-1.37-1.6-3.35-2.4-5.97-2.4c-1.79,0-3.35,0.41-4.66,1.22
		c-1.32,0.81-2.36,1.96-3.13,3.44l-0.24-4.21h-5.99v1.98l3.63,0.29v19.57l-3.63,0.29v1.96h9.93v-1.96l-3.63-0.29v-14.56
		c0.52-1.63,1.37-2.94,2.55-3.93c1.18-0.99,2.71-1.48,4.58-1.48c1.9,0,3.37,0.57,4.4,1.71c1.03,1.14,1.55,3.1,1.55,5.86v12.4
		l-3.63,0.29v1.96h9.93v-1.96l-3.63-0.29V213.9z"/>
	<path class="st0" d="M512.91,226.65c-0.41,0.04-0.83,0.05-1.26,0.05c-0.95,0-1.71-0.33-2.28-0.99c-0.57-0.66-0.86-1.78-0.86-3.35
		v-15.7h5.3v-2.18h-5.3v-6.17h-2.69v6.17h-4.14v2.18h4.14v15.7c0,2.32,0.47,4.01,1.41,5.08c0.94,1.07,2.26,1.6,3.95,1.6
		c0.64,0,1.28-0.05,1.91-0.16c0.64-0.1,1.18-0.25,1.63-0.45l-0.4-1.98C513.79,226.55,513.32,226.61,512.91,226.65z"/>
	<path class="st0" d="M533.53,204.03c-2.81,0-5.2,1.14-7.18,3.41c-1.99,2.27-2.97,5.13-2.97,8.57v1.22c0,3.43,0.99,6.25,2.98,8.47
		c1.99,2.22,4.5,3.33,7.53,3.33c1.92,0,3.56-0.28,4.94-0.83c1.38-0.56,2.53-1.31,3.43-2.26l-1.14-1.83
		c-0.83,0.86-1.83,1.52-3.01,1.98c-1.17,0.46-2.58,0.69-4.23,0.69c-2.35,0-4.24-0.92-5.69-2.75c-1.44-1.83-2.17-4.1-2.17-6.8v-0.65
		h17.01v-2.27c0-3.12-0.85-5.61-2.54-7.48C538.81,204.97,536.49,204.03,533.53,204.03z M540.39,214.34h-14.12l-0.04-0.11
		c0.22-2.27,1.01-4.16,2.35-5.66c1.34-1.51,2.99-2.26,4.95-2.26c2.11,0,3.78,0.71,5.01,2.12c1.23,1.41,1.85,3.16,1.85,5.25V214.34z"
		/>
	<path class="st0" d="M569.31,208.33c-0.81-1.36-1.85-2.42-3.11-3.17c-1.25-0.75-2.73-1.13-4.44-1.13c-2.91,0-5.18,1.15-6.83,3.46
		c-1.64,2.31-2.46,5.38-2.46,9.23v0.47c0,3.59,0.81,6.47,2.45,8.62c1.63,2.16,3.9,3.23,6.79,3.23c1.68,0,3.14-0.33,4.39-0.99
		c1.25-0.66,2.28-1.61,3.1-2.84v3.05c0,2.4-0.58,4.28-1.74,5.63c-1.16,1.35-2.88,2.03-5.17,2.03c-1.17,0-2.29-0.12-3.35-0.38
		c-1.06-0.25-2.07-0.61-3.04-1.07l-0.71,2.25c0.98,0.49,2.13,0.88,3.44,1.16c1.32,0.29,2.55,0.42,3.71,0.42c3,0,5.34-0.9,7.01-2.69
		c1.68-1.79,2.52-4.24,2.52-7.35v-23.78h-2.25L569.31,208.33z M569.2,222.29c-0.62,1.38-1.51,2.47-2.66,3.25
		c-1.15,0.79-2.6,1.18-4.33,1.18c-2.35,0-4.11-0.86-5.29-2.59c-1.18-1.73-1.77-4.04-1.77-6.94v-0.47c0-3.06,0.6-5.55,1.79-7.48
		c1.2-1.93,2.97-2.89,5.31-2.89c1.81,0,3.27,0.44,4.39,1.33c1.11,0.88,1.97,2.03,2.56,3.44V222.29z"/>
	<path class="st0" d="M595.58,204.03c-1.62,0-3.02,0.42-4.2,1.26c-1.18,0.84-2.11,2-2.79,3.48v-0.29l-0.33-4.01h-2.32h-3.63v1.98
		l3.63,0.29v19.57l-3.63,0.29v1.96h9.91v-1.96l-3.63-0.29v-14.38c0.46-1.65,1.23-2.94,2.3-3.88c1.08-0.94,2.45-1.42,4.13-1.42
		l1.98,0.13l0.36-2.49c-0.21-0.06-0.47-0.12-0.79-0.16C596.26,204.06,595.93,204.03,595.58,204.03z"/>
	<path class="st0" d="M624.2,225.13c-0.02-0.45-0.03-0.93-0.03-1.42v-11.85c0-2.52-0.81-4.46-2.43-5.81
		c-1.62-1.35-3.75-2.03-6.41-2.03c-1.75,0-3.4,0.27-4.95,0.8c-1.55,0.53-2.89,1.23-4,2.09l-0.02,4.63h2.2l0.22-3.23
		c0.74-0.62,1.67-1.12,2.77-1.48c1.11-0.37,2.33-0.55,3.67-0.55c1.99,0,3.54,0.49,4.64,1.47c1.1,0.98,1.66,2.33,1.66,4.05v3.18
		h-5.32c-3.28,0-5.88,0.65-7.79,1.96c-1.91,1.31-2.87,3.07-2.87,5.3c0,2.08,0.65,3.73,1.94,4.94c1.29,1.22,3.12,1.83,5.48,1.83
		c1.86,0,3.53-0.41,5.01-1.25c1.48-0.83,2.67-1.87,3.56-3.14c0,0.61,0.04,1.21,0.11,1.8c0.08,0.6,0.2,1.3,0.38,2.12h4.74v-1.96
		l-2.4-0.16C624.27,226.03,624.23,225.58,624.2,225.13z M621.52,221.89c-0.65,1.41-1.71,2.56-3.18,3.45s-3.17,1.34-5.1,1.34
		c-1.57,0-2.81-0.4-3.71-1.19c-0.9-0.8-1.35-1.84-1.35-3.13c0-1.53,0.73-2.79,2.17-3.79c1.45-1,3.38-1.51,5.8-1.51h5.37V221.89z"/>
	<polygon class="st0" points="640.84,193.84 634.56,193.84 634.56,195.82 638.19,196.11 638.19,226.32 634.56,226.61 634.56,228.57 
		644.47,228.57 644.47,226.61 640.84,226.32 	"/>
</g>
</svg>
